<svg width="130" height="132" viewBox="0 0 130 132" fill="none" xmlns="http://www.w3.org/2000/svg">
<path d="M129.3 76.2C129.3 80.4 128 83.6 125.3 85.8C122.6 88.1 119.7 89.2 116.7 89.2C119 91.7 120.1 94.6 120.1 97.9C120.1 101.2 118.9 104.1 116.6 106.7C114.2 109.3 111.1 110.6 107.2 110.6C105.6 110.6 103.7 110.2 101.6 109.4C102.3 110.6 102.6 111.8 102.6 113C102.6 114.6 102 116.7 100.7 119.2C98.2 123.5 94.5 125.7 89.6 125.7C85.4 125.7 82 124.2 79.4 121.1C78.7 124.2 77.2 126.7 74.9 128.7C72.6 130.7 70 131.7 67.3 131.7C64.2 131.7 61.4 130.8 59.1 129C56.7 127.2 55.2 124.8 54.3 121.7C51.7 125.4 48.1 127.3 43.5 127.3C41.7 127.3 39.9 126.8 38.2 125.7C33.5 123.4 31.1 119.6 31.1 114.3L31.4 111.6C29.5 112.6 27.5 113.1 25.2 113.1C24.4 113.1 22.9 113 20.9 112.6C18.9 112.3 16.9 110.9 15.1 108.4C13.2 105.9 12.3 103.1 12.3 99.8C12.3 97.1 13.2 94.7 15 92.4C9.6 92.4 5.7 90.3 3.3 86.2C2.1 84.1 1.5 82 1.5 79.7C1.5 78.5 1.8 77.2 2.2 75.7C2.7 74.2 3.5 72.8 4.5 71.5C5.5 70.1 7 69.1 8.8 68.3C3.5 65.8 0.800003 61.8 0.800003 56.3L1.1 53.4C2.4 47.2 6.5 43.8 13.5 43.3C11.4 40.8 10.4 37.9 10.4 34.6C10.4 31.5 11.3 29 13.2 26.9C15.9 23.6 19.2 21.9 23.1 21.9C25 21.9 26.8 22.3 28.7 23.1C28.3 22.1 28.1 21 28.1 19.7C28.1 14.3 30.5 10.6 35.2 8.29999C37 7.39999 39 7 41 7C45.3 7 48.6 8.50001 50.9 11.6C51.3 8.50001 52.7 5.99999 55.1 3.89999C57.5 1.89999 60.3 0.799988 63.6 0.799988C66.3 0.799988 68.9 1.69999 71.4 3.39999C74 5.19999 75.6 7.7 76.2 11C78.5 7.3 82 5.39999 86.7 5.39999C88.3 5.39999 89.8 5.60001 91.3 6.10001C96.7 8.40001 99.3 12.4 99.3 18.1L99 20.9C100.8 19.9 102.8 19.3 104.8 19.3C109.3 19.3 112.9 21.2 115.3 24.9C117 27.2 117.8 29.8 117.8 32.6C117.8 35.3 117 37.7 115.3 40C124 40 128.3 44.2 128.3 52.7C128.3 57.9 126.1 61.7 121.8 64.1C121.8 64.3 121.6 64.4 121.2 64.4C126.6 67.2 129.3 71.1 129.3 76.2Z" fill="#2E58A6"/>
</svg>
