<svg width="267" height="267" viewBox="0 0 267 267" fill="none" xmlns="http://www.w3.org/2000/svg">
<path d="M40.5519 206.078C21.3567 199.07 11.4772 177.828 18.4854 158.633L61.6982 40.2745C68.7064 21.0794 89.9485 11.1999 109.144 18.2081L227.502 61.4209C246.697 68.4291 256.577 89.6711 249.568 108.866L206.356 227.224C199.347 246.42 178.105 256.299 158.91 249.291L40.5519 206.078Z" fill="#C4C4C4"/>
<path d="M118.228 250.706C99.6759 259.272 77.6921 251.176 69.1261 232.623L16.3079 118.228C7.74186 99.6759 15.8375 77.6921 34.39 69.1261L148.785 16.3079C167.338 7.74186 189.321 15.8375 197.887 34.39L250.706 148.785C259.272 167.338 251.176 189.321 232.623 197.887L118.228 250.706Z" fill="#C4C4C4"/>
</svg>
